/* XPM */
static char * back_xpm[] = {
"64 64 5 1",
" 	c #280F2E",
".	c #2C1332",
"+	c #2E1736",
"@	c #362140",
"#	c #2B1231",
" ..      +@@@@.              ..  ..      +@@@@.              .. ",
" ..      .+@@@@.             ..  ..      .+@@@@.             .. ",
" ..      ..      +@@@.       ..  ..      ..      +@@@.       .. ",
" ..      ..      .+@@@.      ..  ..      ..      .+@@@.      .. ",
" ..      ..      ..          ..  ..      ..      ..          .. ",
" ..      ..      ..          ..  ..      ..      ..          .. ",
" .       ..      ..          ..  .       ..      ..          .. ",
"  .@@@@+ ..      ..          ..   .@@@@+ ..      ..          .. ",
" .@@@@+. ..      ..          ..  .@@@@+. ..      ..          .. ",
"      .. .       ..                   .. .       ..             ",
"      ..  .@@@@+ ..      .@@@@+.      ..  .@@@@+ ..      .@@@@+.",
"      .. .@@@@+. ..     .@@@@+.       .. .@@@@+. ..     .@@@@+. ",
"      ..      .. .           ..       ..      .. .           .. ",
"      ..      ..  @@@@+      ..       ..      ..  @@@@+      .. ",
"      ..      .. @@@@+.      ..       ..      .. @@@@+.      .. ",
"      ..      ..     ..      ..       ..      ..     ..      .. ",
"      ..      ..     ..      ..       ..      ..     ..      .. ",
"       .      ..     ..                .      ..     ..         ",
" +@@@@.       ..     .. +@@@@@.  +@@@@.       ..     .. +@@@@@. ",
" .+@@@@.      ..     .. .+@@@@@. .+@@@@.      ..     .. .+@@@@@.",
" ..           ..      . ..       ..           ..      . ..      ",
" ..           .. +@@@.  ..       ..           .. +@@@.  ..      ",
" ..           .. .+@@@. ..       ..           .. .+@@@. ..      ",
" ..           .. ..     ..       ..           .. ..     ..      ",
" ..            . ..     ..       ..            . ..     ..      ",
" ..      +@@@@.  ..     ..       ..      +@@@@.  ..     ..      ",
" ..      .+@@@@. .      ..       ..      .+@@@@. ..     ..      ",
" ..      ..       .@@@+ .        ..      ..      ..     .       ",
" ..      ..      .@@@+.  .@@@@+  ..      ..      ..      .@@@@+ ",
" ..      ..          .. .@@@@+.  ..      ..      ..     .@@@@+. ",
" ..      .           ..      ..  ..      ..      ..          .. ",
" ..                  ..      ..  ..      .       ..          .. ",
" ..      +@@@@.       .      ..  ..      +@@@@.  ..          .. ",
" ..      .+@@@@.      .      ..  ..      .+@@@@.             .. ",
" ..      ..      +@@@.       ..  ..      ..      +@@@.       .. ",
" ..      ..      .+@@@.      ..  .       ..      .+@@@.      .. ",
" ..      ..      ..          ..   .@@@@+ ..      ..          .. ",
" ..      ..      ..          ..  .@@@@+. ..      ..          .. ",
" .       ..      ..          ..       .. ..      ..          .. ",
"  .@@@@+ ..      ..          ..       .. ..      ..          .. ",
" .@@@@+. ..      ..          ..       .. ..      ..          .. ",
"      .. .       ..                   .. .       ..             ",
"      ..  .@@@@+ ..      .@@@@+.      ..  .@@@@+ ..      .@@@@+.",
"      .. .@@@@+. ..     .@@@@+.       .. .@@@@+. ..     .@@@@+. ",
"      ..      .. .           ..       ..      .. .           .. ",
"      ..      ..  @@@@+      ..       ..      ..  @@@@+      .. ",
"      ..      .. @@@@+.      ..       ..      .. @@@@+.      .. ",
"      ..      ..     ..      ..       ..      ..     ..      .. ",
"      ..      ..     ..      ..       ..      ..     ..      .. ",
"       .      ..     ..                .      ..     ..         ",
" +@@@@.       ..     .. +@@@@@.  +@@@@.       ..     .. +@@@@@. ",
" .+@@@@.      ..     .. .+@@@@@. .+@@@@.      ..     .. .+@@@@@.",
" ..           ..      . ..       ..           ..      . ..      ",
" ..           .. +@@@.  ..       ..           .. +@@@.  ..      ",
" ..           .. .+@@@. ..       ..           .. .+@@@. ..      ",
" ..           .. ..     ..       ..           .. ..     ..      ",
" ..            . ..     ..       ..            . ..     ..      ",
" ..      +@@@@.  ..     ..       ..      +@@@@.  ..     ..      ",
" ..      .+@@@@. .      ..       ..      .+@@@@. .      ..      ",
" ..      ..       .@@@+ .        ..      ..       .@@@+ .       ",
" ..      ..      .@@@+.  .@@@@+  ..      ..      .@@@+.  .@@@@+ ",
" ..      ..          .. .@@@@+.  ..      ..          .. .@@@@+. ",
" ..      ..          ..      ..  ..      ..          ..      .. ",
" ..      .           ..      ..  ..      .           #.      .. "};
