/* XPM */
static char * collectable_xpm[] = {
"64 64 11 1",
" 	c #280F2E",
".	c #2C1332",
"+	c #2E1736",
"@	c #362140",
"#	c #F5CE58",
"$	c #DEA700",
"%	c #570404",
"&	c #710B0B",
"*	c #8E5C1D",
"=	c #9A1818",
"-	c #C5750F",
" ..      +@@@@.              ..  ..      +@@@@.              .. ",
" ..      .+@@@@.             ..  ..      .+@@@@.             .. ",
" ..      ..      +@@@.       ..  ..      ..      +@@@.       .. ",
" ..      ..      .+@@@.      ..  ..      ..      .+@@@.      .. ",
" ..      ..      ..          ..  ..      ..      ..          .. ",
" ..      ..      ..          ..  ..      ..      ..          .. ",
" .       ..      ..          ..  .       ..      ..          .. ",
"  .@@@@+ ..      ..          ..   .@@@@+ ..      ..          .. ",
" .@@@@+. ..      ..          ..  .@@@@+. ..      ..          .. ",
"      .. .       ..                   .. .       ..             ",
"      ..  .@@@@+ ..      .@@@@+.      ..  .@@@@+ ..      .@@@@+.",
"      .. .@@@@+. ..     .@@@@+.       .. .@@@@+. ..     .@@@@+. ",
"      ..      .. .           ..       ..      .. .           .. ",
"      ..      ..  @@@@+      ..       ..      ..  @@@@+      .. ",
"      ..      .. @@@@+.      ..       ..      .. @@@@+.      .. ",
"      ..      ..     ..      ..       ..      ..     ..      .. ",
"      ..      ..     ..      ..       ..      ..     ..      .. ",
"       .      ..     ..                .      ..     ..         ",
" +@@@@.       ..     .. +@@@@@.  +@@@@.       ..     .. +@@@@@. ",
" .+@@@@.      ..     .. .+@@@@@. .+@@@@.      ..     .. .+@@@@@.",
" ..           ..      . ..       ..           ..      . ..      ",
" ..           .. +@@@.  ..       ..           .. +@@@.  ..      ",
" ..           .. .+@@@. ..       ..           .. .+@@@. ..      ",
" ..           .. ..     ..       ..           .. ..     ..      ",
" ..       ##$$$$################%%%%&&$$##$$$$$$$$$$$$  ..      ",
" ..      +##$$$$################%%%%&&$$##$$$$$$$$$$$$  ..      ",
" ..     ##$$**&&&&&&&&&&&&&&&&&&==%%####**%%%%%%%%%%**$$..      ",
" ..     ##$$**&&&&&&&&&&&&&&&&&&==%%####**%%%%%%%%%%**$$.       ",
" ..   ##$$**&&&&&&==============&&##$$**%%%%%%%%&&&&%%**$$@@@@+ ",
" ..   ##$$**&&&&&&==============&&##$$**%%%%%%%%&&&&%%**$$@@@+. ",
" ..   ##$$**&&&&================&&##$$**%%%%%%&&&&&&&&%%**   .. ",
" ..   ##$$**&&&&================&&##$$**%%%%%%&&&&&&&&%%**   .. ",
" .. ##$$**&&&&&&==============&&##$$**%%%%%%&&&&&&&&&&%%**** .. ",
" .. ##$$**&&&&&&==============&&##$$**%%%%%%&&&&&&&&&&%%**** .. ",
" .. ##$$**&&&&================&&##$$**%%%%%%&&&&&&&&&&&&%%** .. ",
" .. ##$$**&&&&================&&##$$**%%%%%%&&&&&&&&&&&&%%** .. ",
" .. ##$$**&&&&================&&##$$**%%%%%%&&&&&&&&&&&&%%** .. ",
" .. ##$$**&&&&================&&##$$**%%%%%%&&&&&&&&&&&&%%** .. ",
" .  ##$$**&&&&&&&&&&&&&&&&&&==&&##$$**%%%%%%&&&&&&&&&&&&%%** .. ",
"  .@##$$**&&&&&&&&&&&&&&&&&&==&&##$$**%%%%%%&&&&&&&&&&&&%%** .. ",
" .@@##$$**&&&&&&####$$$$**&&&&&&##$$**%%%%%%%%%%%%%%%%%%%%** .. ",
"    ##$$**&&&&&&####$$$$**&&&&&&##$$**%%%%%%%%%%%%%%%%%%%%**    ",
"    ##$$****$$##$$&&&&&&$$$$####$$##************************@@+.",
"    ##$$****$$##$$&&&&&&$$$$####$$##************************@+. ",
"    ##$$$$--$$$$$$----&&$$$$----$$##****----------**--****** .. ",
"    ##$$$$--$$$$$$----&&$$$$----$$##****----------**--****** .. ",
"    ##********$$$$--****$$********************************** .. ",
"    ##********$$$$--****$$********************************** .. ",
"      **$$**&&**$$$$**$$$$**&&**$$**%%%%%%%%%%%%%%%%%%%%**   .. ",
"      **$$**&&**$$$$**$$$$**&&**$$**%%%%%%%%%%%%%%%%%%%%**      ",
" +@@@@$$##**&&&&**********&&&&$$##**%%%%%%%%%%%%%%%%%%%%**@@@@. ",
" .+@@@$$##**&&&&**********&&&&$$##**%%%%%%%%%%%%%%%%%%%%**@@@@@.",
" ..   $$##**%%&&&&&&&&&&&&&&&&$$##**%%%%%%%%%%%%%%%%%%%%**      ",
" ..   $$##**%%&&&&&&&&&&&&&&&&$$##**%%%%%%%%%%%%%%%%%%%%**      ",
" ..   $$##**%%&&==========&&&&$$##**%%%%%%&&&&&&&&&&&&%%**      ",
" ..   $$##**%%&&==========&&&&$$##**%%%%%%&&&&&&&&&&&&%%**      ",
" ..   $$##**%%&&============&&$$##**%%%%%%&&&&&&&&&&&&%%**      ",
" ..   $$##**%%&&============&&$$##**%%%%%%&&&&&&&&&&&&%%**      ",
" ..   $$##**%%%%============&&**##**%%%%%%&&&&&&&&&&&&%%**      ",
" ..   $$##**%%%%============&&**##**%%%%%%&&&&&&&&&&&&%%**      ",
" ..   $$##**%%%%%%%%&&&&&&&&&&**--**%%%%%%%%%%%%%%%%%%%%**@@@@+ ",
" ..   $$##**%%%%%%%%&&&&&&&&&&**--**%%%%%%%%%%%%%%%%%%%%**@@@+. ",
" ..   $$$$************************************************   .. ",
" ..   $$$$************************************************   .. "};
