/* XPM */
static char * exit_xpm[] = {
"64 64 11 1",
" 	c #280F2E",
".	c #2C1332",
"+	c #2E1736",
"@	c #362140",
"#	c #3CA370",
"$	c #8FDE5D",
"%	c #3D6E70",
"&	c #385660",
"*	c #CFFF70",
"=	c #323E4F",
"-	c #2B1231",
" ..      +@@@@.              ..  ..      +@@@@.              .. ",
" ..      .+@@@@.             ..  ..      .+@@@@.             .. ",
" ..      ..      +@@@.      ########     ..      +@@@.       .. ",
" ..      ..      .+@@@.     ########     ..      .+@@@.      .. ",
" ..      ..      ..       $$##%%%%####   ..      ..          .. ",
" ..      ..      ..       $$##%%%%####   ..      ..          .. ",
" .       ..      ..       ##%%%%%%%%##   ..      ..          .. ",
"  .@@@@+ ..      ..       ##%%%%%%%%##@+ ..      ..          .. ",
" .@@@@+. ..      ..     $$%%%%&&&&%%%%## ..      ..          .. ",
"      .. .       ..     $$%%%%&&&&%%%%## .       ..             ",
"      ..  .@@@$$**.     ##%%&&====&&%%##  .@@@@+ ..      .@@@@+.",
"      .. .@@@@$$**.     ##%%&&====&&%%## .@@@@+. ..     .@@@@+. ",
"      ..      ****    $$##%%&&====&&%%####    .. .           .. ",
"      ..      ****@@@@$$##%%&&====&&%%####    ..  @@@@+      .. ",
"      ..      .. @@@@+$$##%%========$$$$$$    .. @@@@+.      .. ",
"      ..      ..     .$$##%%========$$$$$$    ..     ..      .. ",
"      ..      ..     .####&&====$$$$$$$$$$    ..     ..      .. ",
"       .      ..     .####&&====$$$$$$$$$$    ..     ..         ",
" +@@@@.       ..  $$ .##%%&&==$$$$$$******    ..     .. +@@@@@. ",
" .+@@@@.      ..  $$ .##%%&&==$$$$$$******    ..     .. .+@@@@@.",
" ..           ..    ####&&==$$$$************  ..      . ..      ",
" ..           .. +@@####&&==$$$$************  .. +@@@.  ..      ",
" ..           .. .+@##%%&&==$$**************  .. .+@@@. ..      ",
" ..           .. .. ##%%&&==$$**************  .. ..     ..      ",
" ..            . .. ##%%&&$$****$$$$$$******   . ..     ..      ",
" ..      +@@@@.  .. ##%%&&$$****$$$$$$******@@.  ..     ..      ",
" ..      .+@@@@. .  ##%%&&$$**$$$$$$$$$$$$**@@@. ..     ..      ",
" ..      ..       .@##%%&&$$**$$$$$$$$$$$$**     ..     .       ",
" ..      ..      .@@##%%&&$$**$$======$$$$**     ..      .@@@@+ ",
" ..      ..         ##%%&&$$**$$======$$$$**     ..     .@@@@+. ",
" ..      .          ##%%&&$$$$========&&$$**     ..          .. ",
" ..                 ##%%&&$$$$========&&$$**     ..          .. ",
" ..      +@@@@.     $$##&&$$$$==####==&&$$$$@@.  ..          .. ",
" ..      .+@@@@.    $$##&&$$$$==####==&&$$$$@@@.             .. ",
" ..      ..      +@@$$##&&$$$$==$$####&&$$$$     +@@@.       .. ",
" ..      ..      .+@$$##&&$$$$==$$####&&$$$$     .+@@@.      .. ",
" ..      ..      .. $$$$##==$$$$$$####&&$$**     ..          .. ",
" ..      ..      .. $$$$##==$$$$$$####&&$$**     ..          .. ",
" .       ..      .. $$$$######====####&&$$**     ..          .. ",
"  .@@@@+ ..      .. $$$$######====####&&$$**     ..          .. ",
" .@@@@+. ..      .. ##$$$$$$######$$##&&$$$$     ..          .. ",
"      .. .       .. ##$$$$$$######$$##&&$$$$     ..             ",
"      ..  .@@@@+ .. $$####$$$$$$####==%%$$$$@@@+ ..      .@@@@+.",
"      .. .@@@@+. .. $$####$$$$$$####==%%$$$$@@+. ..     .@@@@+. ",
"      ..      .. .    ##%%########==&&$$$$$$  .. .           .. ",
"      ..      ..  @@@@##%%########==&&$$$$$$  ..  @@@@+      .. ",
"      ..      .. @@@@+##%%&&========&&$$$$$$  .. @@@@+.      .. ",
"      ..      ..     .##%%&&========&&$$$$$$  ..     ..      .. ",
"      ..      ..     .##%%%%========%%$$**    ..     ..      .. ",
"       .      ..     .##%%%%========%%$$**    ..     ..         ",
" +@@@@.       ..     .$$##%%&&====&&%%$$**    ..     .. +@@@@@. ",
" .+@@@@.      ..     .$$##%%&&====&&%%$$**    ..     .. .+@@@@@.",
" ..           ..      . ##%%%%&&&&%%%%$$$$##  ..      . ..      ",
" ..           .. +@@@.  ##%%%%&&&&%%%%$$$$##  .. +@@@.  ..      ",
" ..           .. .+@@@. $$##%%%%%%%%$$$$  ##  .. .+@@@. ..      ",
" ..           .. ..     $$##%%%%%%%%$$$$  ##  .. ..     ..      ",
" ..            . ..     ..##%%%%%%%%$$         . ..     ..      ",
" ..      +@@@@.  ..     ..##%%%%%%%%$$   +@@@@.  ..     ..      ",
" ..      .+@@@@. .      ..$$##%%%%$$$$   .+@@@@. .      ..      ",
" ..      ..       .@@@+ . $$##%%%%$$$$   ..       .@@@+ .       ",
" ..      ..      .@@@+.  .@@$$$$$$$$     ..      .@@@+.  .@@@@+ ",
" ..      ..          .. .@@@$$$$$$$$     ..          .. .@@@@+. ",
" ..      ..          ..      ..  ..      ..          ..      .. ",
" ..      .           ..      ..  ..      .           -.      .. "};
