/* XPM */
static char * wall_xpm[] = {
"64 64 3 1",
" 	c #29111D",
".	c #3E2437",
"+	c #3E1B32",
"  ............++  ............++  ............++  ............++",
"  ............++  ............++  ............++  ............++",
"  ++              ++              ++              ++            ",
"  ++              ++              ++              ++            ",
"  ++              ++              ++              ++            ",
"  ++              ++              ++              ++            ",
"                                                                ",
"                                                                ",
"......++  ............++  ............++  ............++  ++....",
"......++  ............++  ............++  ............++  ++....",
"          ++              ++              ++              ++    ",
"          ++              ++              ++              ++    ",
"          ++              ++              ++              ++    ",
"          ++              ++              ++              ++    ",
"                                                                ",
"                                                                ",
"  ............++  ............++  ............++  ............++",
"  ............++  ............++  ............++  ............++",
"  ++              ++              ++              ++            ",
"  ++              ++              ++              ++            ",
"  ++              ++              ++              ++            ",
"  ++              ++              ++              ++            ",
"                                                                ",
"                                                                ",
"......++  ............++  ............++  ............++  ++....",
"......++  ............++  ............++  ............++  ++....",
"          ++              ++              ++              ++    ",
"          ++              ++              ++              ++    ",
"          ++              ++              ++              ++    ",
"          ++              ++              ++              ++    ",
"                                                                ",
"                                                                ",
"  ............++  ............++  ............++  ............++",
"  ............++  ............++  ............++  ............++",
"  ++              ++              ++              ++            ",
"  ++              ++              ++              ++            ",
"  ++              ++              ++              ++            ",
"  ++              ++              ++              ++            ",
"                                                                ",
"                                                                ",
"......++  ............++  ............++  ............++  ++....",
"......++  ............++  ............++  ............++  ++....",
"          ++              ++              ++              ++    ",
"          ++              ++              ++              ++    ",
"          ++              ++              ++              ++    ",
"          ++              ++              ++              ++    ",
"                                                                ",
"                                                                ",
"  ............++  ............++  ............++  ............++",
"  ............++  ............++  ............++  ............++",
"  ++              ++              ++              ++            ",
"  ++              ++              ++              ++            ",
"  ++              ++              ++              ++            ",
"  ++              ++              ++              ++            ",
"                                                                ",
"                                                                ",
"......++  ............++  ............++  ............++  ++....",
"......++  ............++  ............++  ............++  ++....",
"          ++              ++              ++              ++    ",
"          ++              ++              ++              ++    ",
"          ++              ++              ++              ++    ",
"          ++              ++              ++              ++    ",
"                                                                ",
"                                                                "};
