/* XPM */
static char * player_xpm[] = {
"64 64 8 1",
" 	c #280F2E",
".	c #2C1332",
"+	c #2E1736",
"@	c #362140",
"#	c #FFFCFC",
"$	c #BAC6D4",
"%	c #8595A8",
"&	c #2B1231",
" ..      +@@@@.              ..  ..      +@@@@.              .. ",
" ..      .+@@@@.             ..  ..      .+@@@@.             .. ",
" ..      ..      +@@@.       ..  ..      ..      +@@@.       .. ",
" ..      ..      .+@@@.      ..  ..      ..      .+@@@.      .. ",
" ..      ..      ..          ..  ..      ..      ..          .. ",
" ..      ..      ..          ..  ..      ..      ..          .. ",
" .       ..      ..          ..  .       ..      ..          .. ",
"  .@@@@+ ..      ..          ..   .@@@@+ ..      ..          .. ",
" .@@@@+. ..      ..          ..  .@@@@+. ..      ..          .. ",
"      .. .       ..                   .. .       ..             ",
"      ..  .@@@@+ ..      .@@@@+.      ..  .@@@@+ ..      .@@@@+.",
"      .. .@@@@+. ..     .@@@@+.       .. .@@@@+. ..     .@@@@+. ",
"      ..      .. .           ..       ..      .. .           .. ",
"      ..      ..  @@@@+      ..       ..      ..  @@@@+      .. ",
"      ..      .. @@@@+.      ..       ..      .. @@@@+.      .. ",
"      ..      ..     ..      ..       ..      ..     ..      .. ",
"      ..      ..     ..      ..       ..      ..     ..      .. ",
"       .      ..     ..                .      ..     ..         ",
" +@@@@.       ..     .. +@@@@@.  +@@@@.       ..     .. +@@@@@. ",
" .+@@@@.      ..     .. .+@@@@@. .+@@@@.      ..     .. .+@@@@@.",
" ..           ..      . ..       ..           ..      . ..      ",
" ..           .. +@@@.  ..       ..           .. +@@@.  ..      ",
" ..           .. .+@@@. ..       ..           .. .+@@@. ..      ",
" ..           .. ..     ..       ..           .. ..     ..      ",
" ..            . ..     ..   ####..            . ..     ..      ",
" ..      +@@@@.  ..     ..  ######.      +@@@@.  ..     ..      ",
" ..      .+@@@@. .      ..  #######      .+@@@@. ..     ..      ",
" ..      ..       .@@@+ .   #######      ..      ..     .       ",
" ..      ..      .@@@+.  .@@#######      ..      ..      .@@@@+ ",
" ..      ..          .. .@@@#######      ..      ..     .@@@@+. ",
" ..      .           ..     #######      ..      ..          .. ",
" ..                  ..      ######      .       ..          .. ",
" ..      +@@@@.       .      $$###.      +@@@@.  ..          .. ",
" ..      .+@@@@.      .    ###$$$$.      .+@@@@.             .. ",
" ..      ..      +@@@.    ######$$$      ..      +@@@.       .. ",
" ..      ..      .+@@@.   #########%     ..      .+@@@.      .. ",
" ..      ..      ..      ###########%@@+ ..      ..          .. ",
" ..      ..      ..      ###########%$+. ..      ..          .. ",
" .       ..      ..      #####$#####%$.. ..      ..          .. ",
"  .@@@@+ ..      ..      ####$$#####%$.. ..      ..          .. ",
" .@@@@+. ..      ..      ####$######%$.. ..      ..          .. ",
"      .. .       ..      ###$$######%$.. .       ..             ",
"      ..  .@@@@+ ..      ###$#######%$..  .@@@@+ ..      .@@@@+.",
"      .. .@@@@+. ..     .###$########%$. .@@@@+. ..     .@@@@+. ",
"      ..      .. .       ##$$########%$.      .. .           .. ",
"      ..      ..  @@@@+  ##$$########%$.      ..  @@@@+      .. ",
"      ..      .. @@@@+.  ##$$########%$.      .. @@@@+.      .. ",
"      ..      ..     ..  ##$$########%$.      ..     ..      .. ",
"      ..      ..     ..  ## $######$$%$.      ..     ..      .. ",
"       .      ..     ..  ## $####$$$$%$.      ..     ..         ",
" +@@@@.       ..     .. +##$$### $$$$%.       ..     .. +@@@@@. ",
" .+@@@@.      ..     .. .+@$#### $$$$@@.      ..     .. .+@@@@@.",
" ..           ..      . .. $###  $$$$         ..      . ..      ",
" ..           .. +@@@.  .. $###  $$$$         .. +@@@.  ..      ",
" ..           .. .+@@@. .. $###  $$$$         .. .+@@@. ..      ",
" ..           .. ..     ..$$##$  $$$$         .. ..     ..      ",
" ..            . ..     ..$$#$   %$$%          . ..     ..      ",
" ..      +@@@@.  ..     ..$$$$   %%%     +@@@@.  ..     ..      ",
" ..      .+@@@@. .      ..$$$    %%%     .+@@@@. .      ..      ",
" ..      ..       .@@@+ . $$$    %%%     ..       .@@@+ .       ",
" ..      ..      .@@@+.  .$$$@+  %%      ..      .@@@+.  .@@@@+ ",
" ..      ..          .. .$$$@+.  %%      ..          .. .@@@@+. ",
" ..      ..          ..  $$$ ..  %%%     ..          ..      .. ",
" ..      .           ..  $$$ ..  %%%%    .           &.      .. "};
